#!OML:ASF E:\Style4\Style4.ASF
:FULLY-SPECIFIED
:DEGREES
2516
root -0.668038 18.1296 -1.76549 1.6934 3.32345 1.80435
lowerback 3.25981 2.78178 -1.20691
upperback 1.92517 3.67298 -0.617657
thorax 0.114537 1.83055 -0.0722951
lowerneck 2.88932 -5.06947 -2.58711
upperneck 5.7189 -6.9311 3.27713
head 1.51617 -3.46368 1.41628
rclavicle 5.95857e-014 -2.51463e-014
rhumerus -316.207 -3.73705 -386.319
rradius 114.893
rwrist -42.1576
rhand -18.5777 28.2842
rfingers 7.12502
rthumb 7.7128 -1.55515
lclavicle 5.95857e-014 -2.51463e-014
lhumerus -41.7242 -39.9378 93.0853
lradius 113.143
lwrist 5.39671
lhand -17.1395 25.1634
lfingers 7.12502
lthumb 9.10076 54.947
rfemur -6.76439 2.54839 18.5068
rtibia 20.038
rfoot -14.5779 -15.9937
rtoes -6.64544
lfemur -3.17484 -4.13487 -19.2869
ltibia 14.6998
lfoot -13.7077 11.9762
ltoes -15.377
2517
root -0.670131 18.1297 -1.7738 1.75888 3.48742 1.70433
lowerback 3.27633 2.6692 -1.2189
upperback 1.89354 3.52213 -0.522732
thorax 0.0672979 1.75481 0.0342809
lowerneck 2.95304 -5.04768 -2.48101
upperneck 5.69675 -6.88829 2.99352
head 1.48016 -3.44438 1.3107
rclavicle 2.57799e-014 -1.11319e-014
rhumerus -316.699 -2.71098 -387.242
rradius 115.227
rwrist -40.3484
rhand -20.2048 28.6389
rfingers 7.12502
rthumb 6.14208 -1.2521
lclavicle 2.57799e-014 -1.11319e-014
lhumerus -39.7081 -40.0561 91.7141
lradius 113.955
lwrist 4.56542
lhand -18.0368 25.2205
lfingers 7.12502
lthumb 8.23481 55.04
rfemur -6.83631 2.51083 18.6243
rtibia 20.014
rfoot -14.6476 -16.0562
rtoes -6.23895
lfemur -3.47689 -4.1916 -19.1472
ltibia 14.9781
lfoot -13.738 11.8324
ltoes -15.2665
2518
root -0.671467 18.1283 -1.78462 1.82014 3.63984 1.53517
lowerback 3.32457 2.55894 -1.14633
upperback 1.8623 3.37632 -0.411189
thorax 0.00713786 1.68223 0.109311
lowerneck 2.89414 -5.03991 -2.4454
upperneck 5.81083 -6.87156 2.83025
head 1.51762 -3.43643 1.25039
rclavicle 6.53505e-015 -2.08724e-014
rhumerus -317.265 -1.60221 -388.243
rradius 115.534
rwrist -38.2409
rhand -22.1111 29.2738
rfingers 7.12502
rthumb 4.30152 -0.662465
lclavicle 6.53505e-015 -2.08724e-014
lhumerus -37.5175 -40.0913 90.2125
lradius 114.687
lwrist 3.76258
lhand -19.0201 25.0744
lfingers 7.12502
lthumb 7.28576 54.9289
rfemur -6.92642 2.43056 18.8148
rtibia 19.99
rfoot -14.6439 -16.1279
rtoes -5.9937
lfemur -3.83743 -4.17008 -18.937
ltibia 15.3642
lfoot -13.7677 11.6522
ltoes -15.3536
2519
root -0.67197 18.1258 -1.79727 1.81664 3.79117 1.43596
lowerback 3.4104 2.45902 -1.15004
upperback 1.89101 3.24226 -0.314202
thorax -0.015753 1.61474 0.211716
lowerneck 2.90529 -5.03738 -2.50406
upperneck 5.72243 -6.86864 2.85223
head 1.49071 -3.43637 1.26856
rclavicle -1.51201e-014 7.95139e-015
rhumerus -317.871 -0.491803 -389.296
rradius 115.793
rwrist -35.9361
rhand -23.5277 29.2617
rfingers 7.12502
rthumb 2.93347 -0.697844
lclavicle -1.51201e-014 7.95139e-015
lhumerus -35.1838 -39.9869 88.6258
lradius 115.31
lwrist 3.01859
lhand -20.0148 24.6548
lfingers 7.12502
lthumb 6.32557 54.5404
rfemur -6.98068 2.30972 18.9289
rtibia 20.0268
rfoot -14.6084 -16.1948
rtoes -6.08916
lfemur -4.14553 -4.21848 -18.8095
ltibia 15.7893
lfoot -13.9327 11.5741
ltoes -15.4986
2520
root -0.673261 18.1231 -1.80962 1.78892 3.89239 1.33904
lowerback 3.45567 2.38963 -1.19177
upperback 1.95616 3.14882 -0.209163
thorax 0.018809 1.56688 0.345224
lowerneck 2.99291 -5.00622 -2.67494
upperneck 5.54255 -6.83539 3.02667
head 1.43174 -3.42246 1.35737
rclavicle -1.67725e-014 1.09332e-015
rhumerus -318.621 0.601798 -390.376
rradius 116.029
rwrist -33.455
rhand -24.7391 28.6897
rfingers 7.12502
rthumb 1.7635 -1.28275
lclavicle -1.67725e-014 1.09332e-015
lhumerus -32.8005 -39.7776 87.0736
lradius 115.849
lwrist 2.19769
lhand -21.0254 24.3441
lfingers 7.12502
lthumb 5.34981 54.2566
rfemur -7.04641 2.21622 19.039
rtibia 20.1177
rfoot -14.6239 -16.2144
rtoes -6.17035
lfemur -4.44528 -4.20767 -18.6822
ltibia 16.248
lfoot -14.0733 11.4921
ltoes -15.9366
2521
root -0.676269 18.1182 -1.8219 1.75999 3.96524 1.24298
lowerback 3.62846 2.34137 -1.1698
upperback 1.94025 3.08241 -0.17052
thorax -0.0938965 1.53422 0.366613
lowerneck 2.92418 -4.96364 -2.91013
upperneck 5.67647 -6.79471 3.27032
head 1.50477 -3.40285 1.47203
rclavicle -2.42269e-014 1.11319e-014
rhumerus -319.634 1.8067 -391.543
rradius 116.266
rwrist -30.6512
rhand -25.5899 28.4488
rfingers 7.12502
rthumb 0.941811 -1.52888
lclavicle -2.42269e-014 1.11319e-014
lhumerus -30.5769 -39.4487 85.4916
lradius 116.32
lwrist 0.996482
lhand -21.7328 24.4876
lfingers 7.12502
lthumb 4.66675 54.4162
rfemur -7.15134 2.16203 19.1608
rtibia 20.2853
rfoot -14.7012 -16.2599
rtoes -6.01586
lfemur -4.7151 -4.12443 -18.5454
ltibia 16.6541
lfoot -14.1536 11.2957
ltoes -15.9757
2522
root -0.677662 18.1113 -1.83186 1.69068 4.05547 1.21095
lowerback 3.89796 2.2849 -1.1195
upperback 1.88527 3.004 -0.209955
thorax -0.294725 1.49653 0.288028
lowerneck 2.85284 -4.93585 -3.11883
upperneck 5.97702 -6.77739 3.51544
head 1.63192 -3.39354 1.58152
rclavicle -5.29016e-014 4.57205e-015
rhumerus -320.835 3.12378 -392.829
rradius 116.445
rwrist -27.5351
rhand -25.7865 28.7279
rfingers 7.12502
rthumb 0.751923 -1.25052
lclavicle -5.29016e-014 4.57205e-015
lhumerus -28.4116 -39.1416 83.8292
lradius 116.769
lwrist -0.391255
lhand -22.2996 24.8305
lfingers 7.12502
lthumb 4.11951 54.7704
rfemur -7.22301 1.98469 19.1949
rtibia 20.4991
rfoot -14.8243 -16.1455
rtoes -5.93983
lfemur -4.92361 -4.01225 -18.4922
ltibia 17.058
lfoot -14.2316 11.127
ltoes -16.4067
